<svg width="10" height="11" viewBox="0 0 10 11" fill="none" xmlns="http://www.w3.org/2000/svg">
  <path d="M9.5 2.00391C9.64844 2.00391 9.76953 2.05078 9.86328 2.14453C9.95703 2.23047 10.0039 2.34766 10.0039 2.49609C10.0039 2.65234 9.95703 2.77734 9.86328 2.87109C9.76953 2.95703 9.64844 3 9.5 3H8.99609V9.50391C8.99609 9.92578 8.85156 10.2812 8.5625 10.5703C8.28125 10.8594 7.92578 11.0039 7.49609 11.0039H2.50391C2.07422 11.0039 1.71484 10.8594 1.42578 10.5703C1.14453 10.2812 1.00391 9.92578 1.00391 9.50391V3H0.5C0.351562 3 0.230469 2.95703 0.136719 2.87109C0.0429688 2.77734 -0.00390625 2.65234 -0.00390625 2.49609C-0.00390625 2.34766 0.0429688 2.23047 0.136719 2.14453C0.230469 2.05078 0.351562 2.00391 0.5 2.00391H2.50391V1.5C2.50391 1.07812 2.64453 0.722656 2.92578 0.433594C3.21484 0.144531 3.57422 0 4.00391 0H5.99609C6.42578 0 6.78125 0.144531 7.0625 0.433594C7.35156 0.722656 7.49609 1.07812 7.49609 1.5V2.00391H9.5ZM3.5 1.5V2.00391H6.5V1.5C6.5 1.35156 6.45312 1.23047 6.35938 1.13672C6.27344 1.04297 6.15234 0.996094 5.99609 0.996094H4.00391C3.84766 0.996094 3.72266 1.04297 3.62891 1.13672C3.54297 1.23047 3.5 1.35156 3.5 1.5ZM8 9.50391V3H2V9.50391C2 9.65234 2.04297 9.77344 2.12891 9.86719C2.22266 9.95312 2.34766 9.99609 2.50391 9.99609H7.49609C7.65234 9.99609 7.77344 9.95312 7.85938 9.86719C7.95312 9.77344 8 9.65234 8 9.50391ZM4.00391 4.5C4.15234 4.5 4.26953 4.54688 4.35547 4.64062C4.44922 4.72656 4.49609 4.84766 4.49609 5.00391V8.00391C4.49609 8.15234 4.44922 8.27344 4.35547 8.36719C4.26953 8.45312 4.15234 8.49609 4.00391 8.49609C3.84766 8.49609 3.72266 8.45312 3.62891 8.36719C3.54297 8.27344 3.5 8.15234 3.5 8.00391V5.00391C3.5 4.84766 3.54297 4.72656 3.62891 4.64062C3.72266 4.54688 3.84766 4.5 4.00391 4.5ZM5.99609 4.5C6.15234 4.5 6.27344 4.54688 6.35938 4.64062C6.45312 4.72656 6.5 4.84766 6.5 5.00391V8.00391C6.5 8.15234 6.45312 8.27344 6.35938 8.36719C6.27344 8.45312 6.15234 8.49609 5.99609 8.49609C5.84766 8.49609 5.72656 8.45312 5.63281 8.36719C5.54688 8.27344 5.50391 8.15234 5.50391 8.00391V5.00391C5.50391 4.84766 5.54688 4.72656 5.63281 4.64062C5.72656 4.54688 5.84766 4.5 5.99609 4.5Z" fill="#FF0000"/>
</svg>
