<svg xmlns="http://www.w3.org/2000/svg" width="30" height="39" viewBox="0 0 30 39" fill="none">
  <g clip-path="url(#clip0_34_4005)">
    <path d="M25.9142 38.831H4.08573C1.74439 38.831 -0.123536 36.8653 0.00510896 34.5189L0.555709 26.3731L17.1612 32.2804C17.2693 32.3216 17.3825 32.337 17.4957 32.337C17.9073 32.337 18.2933 32.0798 18.4374 31.6732C18.6226 31.1535 18.3499 30.5823 17.8302 30.3971L0.699792 24.3045L1.54885 11.7281C1.6672 9.56174 3.46309 7.86877 5.62947 7.86877H24.3705C26.5368 7.86877 28.3327 9.56689 28.4511 11.7281L29.0171 20.0849L13.0857 14.4142C12.566 14.229 11.9948 14.5017 11.8096 15.0214C11.6243 15.5412 11.897 16.1123 12.4168 16.2976L29.1612 22.2564L29.9897 34.5137C30.1183 36.8602 28.2555 38.831 25.9091 38.831H25.9142Z" fill="#004D5A"/>
    <path d="M15.1235 0.5C11.542 0.5 8.62952 3.41252 8.62952 6.994H11.6244C11.6244 5.06432 13.1938 3.5 15.1184 3.5C17.0429 3.5 18.6124 5.06947 18.6124 6.994H21.6072C21.6072 3.41252 18.6947 0.5 15.1132 0.5H15.1235Z" fill="#BAF3E6"/>
  </g>
  <defs>
    <clipPath id="clip0_34_4005">
      <rect width="30" height="38.331" fill="white" transform="translate(0 0.5)"/>
    </clipPath>
  </defs>
</svg>
